<svg xmlns="http://www.w3.org/2000/svg" version="1.1" xmlns:xlink="http://www.w3.org/1999/xlink" xmlns:svgjs="http://svgjs.com/svgjs" width="133" height="102"><svg width="133" height="102" viewBox="0 0 133 102" fill="none" xmlns="http://www.w3.org/2000/svg">
<g clip-path="url(#clip0_1_19)">
<g filter="url(#filter0_d_1_19)">
<path d="M131.329 53.3464C131.381 66.6178 129.097 77.7438 124.479 86.7244C119.687 95.5333 112.81 99.9552 103.848 99.9901C98.8492 100.01 94.7932 98.5604 91.6794 95.6425C88.5649 92.5522 86.9982 88.594 86.9794 83.7681C86.9673 80.6657 87.8194 78.1632 89.5355 76.2606C91.0787 74.1863 92.1949 73.1478 92.8844 73.1451C93.4014 73.1431 94.612 74.1725 96.5159 76.2334C98.2469 78.1225 101.094 79.0594 105.059 79.044C109.885 79.0252 113.926 76.7688 117.183 72.2748C120.268 67.6091 121.792 60.6226 121.755 51.3155C121.724 43.2148 119.976 36.9305 116.511 32.4627C112.874 27.8233 107.866 25.5159 101.489 25.5408C96.3184 25.561 92.361 27.3 89.6167 30.7578C86.6994 34.044 84.3894 38.3619 82.6867 43.7116C80.9833 48.889 79.2816 54.4973 77.5816 60.5364C75.8809 66.4032 73.7482 72.0132 71.1837 77.3662C68.6192 82.7193 65.1031 87.1281 60.6353 90.5927C55.9945 93.8856 49.8822 95.5468 42.2986 95.5764C34.5426 95.6066 28.1564 93.3047 23.14 88.6706C18.1236 84.0365 14.3947 78.1046 11.9536 70.8751C9.34002 63.6463 8.0188 56.3262 7.98992 48.915C7.96506 42.5378 8.8895 36.5017 10.7632 30.8066C12.4646 25.1122 15.118 20.4482 18.7233 16.8146C22.328 13.0087 26.888 11.095 32.4034 11.0735C36.7123 11.0567 40.5956 12.4204 44.0535 15.1647C47.5114 17.9089 49.2497 21.694 49.2685 26.5199C49.2806 29.6223 48.5151 32.2107 46.9719 34.285C45.2558 36.1876 44.053 37.1403 43.3636 37.143C43.0188 37.1443 42.4133 36.5434 41.5468 35.3403C40.5073 33.9655 39.2096 32.6778 37.6537 31.4774C35.9254 30.2776 33.7686 29.6828 31.1833 29.6929C26.1863 30.0571 22.4901 32.4845 20.0946 36.9751C17.6991 41.4657 16.5121 46.4687 16.5336 51.9841C16.5571 58.0165 18.044 63.6124 20.9941 68.7716C23.9443 73.9308 28.1771 76.4997 33.6925 76.4782C38.6908 76.4587 42.5647 75.4095 45.3144 73.3305C48.0633 71.0791 50.4628 67.6226 52.513 62.961C54.3901 58.1276 56.5203 51.9144 58.9037 44.3214C61.2871 36.7284 63.7604 30.083 66.3236 24.3852C68.8861 18.515 72.3157 14.0204 76.6125 10.9012C80.7363 7.6103 86.4176 5.95076 93.6565 5.92254C100.895 5.89433 107.367 7.9374 113.071 12.0517C118.774 16.1661 123.278 21.8364 126.581 29.0625C129.711 36.117 131.294 44.2116 131.329 53.3464Z" fill="#1A142F"></path>
<path d="M124.479 86.7244L125.357 87.2022L125.363 87.192L125.368 87.1817L124.479 86.7244ZM91.6794 95.6425L90.975 96.3523L90.9852 96.3624L90.9956 96.3721L91.6794 95.6425ZM89.5355 76.2606L90.2781 76.9303L90.3097 76.8953L90.3379 76.8574L89.5355 76.2606ZM96.5159 76.2334L97.2532 75.5578L97.2504 75.5548L96.5159 76.2334ZM117.183 72.2748L117.993 72.8616L118.006 72.8442L118.018 72.8262L117.183 72.2748ZM116.511 32.4627L117.301 31.8499L117.298 31.8457L116.511 32.4627ZM89.6167 30.7578L90.3646 31.4217L90.3829 31.4011L90.4 31.3794L89.6167 30.7578ZM82.6867 43.7116L83.6367 44.0242L83.6396 44.0149L82.6867 43.7116ZM77.5816 60.5364L78.5421 60.8149L78.5442 60.8074L77.5816 60.5364ZM71.1837 77.3662L72.0856 77.7983L72.0856 77.7983L71.1837 77.3662ZM60.6353 90.5927L61.214 91.4083L61.2313 91.396L61.2481 91.383L60.6353 90.5927ZM23.14 88.6706L23.8186 87.936L23.8186 87.936L23.14 88.6706ZM11.9536 70.8751L12.901 70.5552L12.8976 70.5451L12.894 70.5351L11.9536 70.8751ZM10.7632 30.8066L11.7132 31.1191L11.7175 31.1061L11.7214 31.0929L10.7632 30.8066ZM18.7233 16.8146L19.4332 17.5189L19.4414 17.5107L19.4494 17.5022L18.7233 16.8146ZM46.9719 34.285L47.7145 34.9548L47.7461 34.9197L47.7743 34.8819L46.9719 34.285ZM41.5468 35.3403L42.3582 34.7559L42.3514 34.7464L42.3444 34.7372L41.5468 35.3403ZM37.6537 31.4774L38.2645 30.6857L38.2446 30.6703L38.2239 30.6559L37.6537 31.4774ZM31.1833 29.6929L31.1794 28.6929L31.145 28.693L31.1106 28.6955L31.1833 29.6929ZM20.0946 36.9751L19.2123 36.5044L19.2123 36.5044L20.0946 36.9751ZM45.3144 73.3305L45.9175 74.1281L45.933 74.1164L45.948 74.1041L45.3144 73.3305ZM52.513 62.961L53.4284 63.3635L53.4372 63.3434L53.4451 63.323L52.513 62.961ZM58.9037 44.3214L59.8578 44.6209L58.9037 44.3214ZM66.3236 24.3852L67.2356 24.7954L67.2401 24.7852L66.3236 24.3852ZM76.6125 10.9012L77.2 11.7104L77.2184 11.697L77.2363 11.6828L76.6125 10.9012ZM113.071 12.0517L113.656 11.2407L113.656 11.2407L113.071 12.0517ZM126.581 29.0625L127.495 28.6569L127.49 28.6468L126.581 29.0625ZM130.329 53.3503C130.38 66.5098 128.115 77.4667 123.589 86.267L125.368 87.1817C130.079 78.0208 132.381 66.7257 132.329 53.3425L130.329 53.3503ZM123.6 86.2465C118.958 94.7813 112.391 98.9568 103.844 98.9902L103.851 100.99C113.229 100.954 120.416 96.2853 125.357 87.2022L123.6 86.2465ZM103.844 98.9902C99.0539 99.0088 95.2591 97.6266 92.3632 94.9128L90.9956 96.3721C94.3272 99.4942 98.6446 101.01 103.851 100.99L103.844 98.9902ZM92.3837 94.9326C89.4772 92.0487 87.9973 88.354 87.9794 83.7642L85.9794 83.772C85.9992 88.834 87.6526 93.0556 90.975 96.3523L92.3837 94.9326ZM87.9794 83.7642C87.9681 80.8554 88.7621 78.611 90.2781 76.9303L88.793 75.5908C86.8766 77.7154 85.9666 80.476 85.9794 83.772L87.9794 83.7642ZM90.3379 76.8574C91.0945 75.8404 91.7176 75.1174 92.2112 74.6581C92.458 74.4286 92.649 74.2871 92.7868 74.2076C92.9329 74.1234 92.9569 74.1448 92.8883 74.1451L92.8805 72.1451C92.4672 72.1467 92.0931 72.2989 91.7877 72.475C91.4741 72.6558 91.1604 72.9041 90.849 73.1938C90.2263 73.7731 89.5198 74.6064 88.7332 75.6637L90.3379 76.8574ZM92.8883 74.1451C92.7335 74.1457 92.7089 74.0881 92.891 74.1964C93.0394 74.2847 93.2508 74.4381 93.5322 74.6774C94.0923 75.1537 94.8394 75.8923 95.7814 76.9119L97.2504 75.5548C96.2884 74.5135 95.4783 73.7069 94.8279 73.1538C94.504 72.8784 94.1969 72.6461 93.9133 72.4775C93.6636 72.3289 93.2938 72.1435 92.8805 72.1451L92.8883 74.1451ZM95.7786 76.9089C97.7831 79.0966 100.969 80.0599 105.062 80.044L105.055 78.044C101.22 78.0589 98.7106 77.1485 97.2532 75.5578L95.7786 76.9089ZM105.062 80.044C110.259 80.0237 114.581 77.5696 117.993 72.8616L116.374 71.6879C113.272 75.9679 109.51 78.0266 105.055 78.044L105.062 80.044ZM118.018 72.8262C121.261 67.9193 122.792 60.6983 122.755 51.3116L120.755 51.3194C120.791 60.547 119.274 67.2989 116.349 71.7233L118.018 72.8262ZM122.755 51.3116C122.723 43.083 120.949 36.5533 117.301 31.8499L115.721 33.0755C119.003 37.3078 120.724 43.3466 120.755 51.3194L122.755 51.3116ZM117.298 31.8457C113.453 26.9414 108.142 24.5149 101.485 24.5408L101.493 26.5408C107.591 26.517 112.294 28.7051 115.724 33.0797L117.298 31.8457ZM101.485 24.5408C96.069 24.5619 91.8 26.3982 88.8334 30.1362L90.4 31.3794C92.9219 28.2017 96.5678 26.56 101.493 26.5408L101.485 24.5408ZM88.8689 30.0939C85.8369 33.5094 83.4676 37.961 81.7338 43.4083L83.6396 44.0149C85.3113 38.7628 87.562 34.5786 90.3646 31.4217L88.8689 30.0939ZM81.7368 43.3991C80.0283 48.5921 78.3224 54.2144 76.619 60.2654L78.5442 60.8074C80.2408 54.7802 81.9384 49.1859 83.6366 44.0242L81.7368 43.3991ZM76.6211 60.258C74.9352 66.0736 72.822 71.632 70.2819 76.9342L72.0856 77.7983C74.6745 72.3943 76.8265 66.7328 78.542 60.8148L76.6211 60.258ZM70.2819 76.9342C67.7811 82.1542 64.3612 86.438 60.0225 89.8025L61.2481 91.383C65.8449 87.8183 69.4573 83.2844 72.0856 77.7983L70.2819 76.9342ZM60.0566 89.7772C55.6316 92.9169 49.7399 94.5474 42.2947 94.5764L42.3025 96.5764C50.0246 96.5463 56.3573 94.8543 61.214 91.4083L60.0566 89.7772ZM42.2947 94.5764C34.7547 94.6058 28.6238 92.375 23.8186 87.936L22.4614 89.4051C27.6891 94.2343 34.3306 96.6074 42.3025 96.5764L42.2947 94.5764ZM23.8186 87.936C18.9389 83.4283 15.2951 77.6451 12.901 70.5552L11.0061 71.1951C13.4944 78.5642 17.3082 84.6446 22.4614 89.4051L23.8186 87.936ZM12.894 70.5351C10.3179 63.41 9.01833 56.2035 8.98991 48.9111L6.98992 48.9189C7.01927 56.449 8.36209 63.8826 11.0131 71.2151L12.894 70.5351ZM8.98991 48.9111C8.96545 42.6345 9.87508 36.7058 11.7132 31.1191L9.81333 30.4941C7.90392 36.2976 6.96468 42.4411 6.98992 48.9189L8.98991 48.9111ZM11.7214 31.0929C13.3833 25.5306 15.9612 21.0182 19.4332 17.5189L18.0135 16.1102C14.2748 19.8782 11.546 24.6937 9.80509 30.5203L11.7214 31.0929ZM19.4494 17.5022C22.8554 13.906 27.1493 12.094 32.4073 12.0735L32.3995 10.0735C26.6268 10.096 21.8006 12.1113 17.9973 16.1269L19.4494 17.5022ZM32.4073 12.0735C36.4832 12.0576 40.1471 13.3411 43.4319 15.948L44.6751 14.3814C41.0442 11.4997 36.9414 10.0558 32.3995 10.0735L32.4073 12.0735ZM43.4319 15.948C46.6275 18.4841 48.2508 21.9693 48.2685 26.5238L50.2685 26.516C50.2486 21.4187 48.3952 17.3337 44.6751 14.3814L43.4319 15.948ZM48.2685 26.5238C48.2799 29.4544 47.5593 31.82 46.1696 33.6881L47.7743 34.8819C49.4708 32.6014 50.2812 29.7903 50.2685 26.516L48.2685 26.5238ZM46.2294 33.6152C45.3874 34.5486 44.7003 35.2161 44.1618 35.6425C43.8928 35.8557 43.6823 35.9913 43.5262 36.0701C43.3607 36.1537 43.3156 36.1431 43.3597 36.143L43.3675 38.1429C43.7562 38.1414 44.12 38.0108 44.4276 37.8555C44.7445 37.6955 45.0713 37.4736 45.4036 37.2104C46.0679 36.6842 46.8403 35.924 47.7145 34.9548L46.2294 33.6152ZM43.3597 36.143C43.5487 36.1422 43.6391 36.2165 43.5897 36.1853C43.5556 36.1638 43.4785 36.1058 43.3552 35.9834C43.1098 35.74 42.7791 35.3402 42.3582 34.7559L40.7353 35.9247C41.181 36.5435 41.5863 37.0457 41.9465 37.4032C42.1259 37.5812 42.319 37.7484 42.5225 37.8768C42.7107 37.9955 43.006 38.1444 43.3675 38.1429L43.3597 36.143ZM42.3444 34.7372C41.2444 33.2824 39.8811 31.933 38.2645 30.6857L37.0428 32.2691C38.538 33.4227 39.7701 34.6486 40.7491 35.9434L42.3444 34.7372ZM38.2239 30.6559C36.2919 29.3147 33.9224 28.6822 31.1794 28.6929L31.1872 30.6929C33.6149 30.6834 35.5589 31.2406 37.0834 32.2989L38.2239 30.6559ZM31.1106 28.6955C25.7647 29.0851 21.7663 31.7168 19.2123 36.5044L20.9769 37.4458C23.214 33.2522 26.608 31.029 31.256 30.6902L31.1106 28.6955ZM19.2123 36.5044C16.7325 41.1531 15.5115 46.3214 15.5336 51.988L17.5336 51.9802C17.5127 46.6161 18.6657 41.7784 20.9769 37.4458L19.2123 36.5044ZM15.5336 51.988C15.5578 58.1905 17.0887 63.9564 20.126 69.268L21.8622 68.2752C18.9992 63.2683 17.5564 57.8426 17.5336 51.9802L15.5336 51.988ZM20.126 69.268C23.238 74.7102 27.7879 77.5012 33.6964 77.4782L33.6886 75.4782C28.5663 75.4982 24.6506 73.1515 21.8622 68.2752L20.126 69.268ZM33.6964 77.4782C38.8173 77.4582 42.933 76.3847 45.9175 74.1281L44.7112 72.5328C42.1964 74.4343 38.5643 75.4592 33.6886 75.4782L33.6964 77.4782ZM45.948 74.1041C48.8599 71.7193 51.3404 68.1111 53.4284 63.3635L51.5976 62.5584C49.5852 67.1341 47.2667 70.439 44.6807 72.5568L45.948 74.1041ZM53.4451 63.323C55.3333 58.4613 57.4709 52.2252 59.8578 44.6209L57.9496 44.0219C55.5697 51.6037 53.4469 57.794 51.5808 62.5989L53.4451 63.323ZM59.8578 44.6209C62.2324 37.0559 64.6923 30.449 67.2356 24.7954L65.4116 23.9749C62.8286 29.717 60.3419 36.4008 57.9496 44.0219L59.8578 44.6209ZM67.2401 24.7852C69.746 19.0446 73.0744 14.7053 77.2 11.7104L76.025 10.0919C71.557 13.3354 68.0261 17.9854 65.4071 23.9851L67.2401 24.7852ZM77.2363 11.6828C81.1285 8.57669 86.5639 6.95019 93.6604 6.92253L93.6526 4.92255C86.2713 4.95132 80.344 6.64391 75.9887 10.1195L77.2363 11.6828ZM93.6604 6.92253C100.695 6.89512 106.958 8.87588 112.486 12.8628L113.656 11.2407C107.775 6.99891 101.096 4.89354 93.6526 4.92255L93.6604 6.92253ZM112.486 12.8628C118.031 16.8631 122.431 22.3889 125.671 29.4782L127.49 28.6468C124.125 21.2838 119.518 15.4691 113.656 11.2407L112.486 12.8628ZM125.667 29.4681C128.731 36.375 130.294 44.3289 130.329 53.3503L132.329 53.3425C132.293 44.0944 130.69 35.859 127.495 28.657L125.667 29.4681Z" fill="#1A142F"></path>
</g>
<path d="M85.4273 83.6826C86.532 84.8966 88.0899 86.1178 90.1009 87.3462C92.2183 88.7214 94.4493 89.7901 96.794 90.5525C99.3919 91.3551 102.05 91.7779 104.769 91.8211C107.594 92.0109 110.267 91.5275 112.787 90.371C118.12 87.845 121.796 84.7307 123.812 81.0281C125.829 77.3255 126.952 73.935 127.182 70.8568C127.131 69.5506 126.978 68.8775 126.725 68.8372C126.219 68.7566 125.758 69.2026 125.344 70.175C124.89 71.4005 123.795 72.9785 122.06 74.9089C120.472 76.7329 118.398 78.3498 115.838 79.7595C113.53 81.2095 110.85 82.1459 107.798 82.5689C104.892 82.8854 101.821 82.2022 98.5847 80.5192C95.6014 78.8766 92.9316 76.8944 90.5754 74.5728C88.2192 72.2512 86.1161 69.9698 84.2662 67.7287C82.6695 65.5279 81.3591 63.5673 80.3349 61.847C79.3107 60.1266 78.5857 58.973 78.1599 58.3861C77.2824 56.5593 76.0122 54.3455 74.3493 51.7448C72.9396 49.1844 71.3299 46.657 69.5203 44.1628C67.7107 41.6685 65.8278 39.2275 63.8714 36.8397C62.0216 34.5986 60.2379 32.7574 58.5203 31.3161C58.0543 30.9824 57.3019 30.4085 56.2634 29.5944C55.3715 28.6738 54.7789 28.3199 54.4854 28.5328C53.7518 29.065 53.7576 29.8447 54.5027 30.8717C55.2479 31.8988 55.7801 32.6324 56.0994 33.0725C58.4672 36.9534 60.6148 40.994 62.5424 45.1943C64.5765 49.5412 66.6637 53.9616 68.8042 58.4553C71.0914 62.8425 73.5253 67.1233 76.1059 71.2976C78.793 75.6187 81.9001 79.747 85.4273 83.6826ZM46.1096 45.6951C48.3852 48.523 51.0723 52.8441 54.1708 58.6583C57.5225 64.5127 61.8264 70.908 67.0826 77.8442C69.8905 81.4057 72.9717 84.881 76.3263 88.2699C79.7872 91.8056 84.0019 94.6824 88.9704 96.9004C94.2984 99.3055 99.415 100.184 104.32 99.5369C109.478 98.9298 113.325 97.5949 115.859 95.5321C116.299 95.2128 116.74 94.8934 117.18 94.5741C117.62 94.2547 117.787 94.0217 117.68 93.875C117.467 93.5815 117.288 93.488 117.141 93.5945C117.101 93.8477 116.534 94.1469 115.441 94.4921C112.267 95.6746 109.015 96.1306 105.684 95.8602C102.459 95.7365 99.3142 95.1065 96.2503 93.9702C93.1864 92.8339 90.3627 91.4113 87.7792 89.7025C85.1957 87.9936 83.1387 86.2387 81.6082 84.4378C74.8733 77.0069 69.8372 69.9111 66.4999 63.1504C63.7207 57.7764 60.6351 52.2887 57.2432 46.6874C53.9577 41.2329 50.2781 36.6241 46.2043 32.8612C42.3838 29.1386 38.2352 26.6616 33.7588 25.4304C29.5354 24.2394 24.9698 25.2003 20.0619 28.3132C19.6217 28.6325 19.0348 29.0583 18.3012 29.5906C17.8208 30.1631 17.687 30.5961 17.8999 30.8895C18.1128 31.1829 19.1456 31.2174 20.9983 30.993C26.0904 29.986 30.4475 30.744 34.0696 33.267C37.6916 35.79 41.705 39.9327 46.1096 45.6951ZM3.93983 36.6507C3.65207 31.9326 5.12354 27.1698 8.35423 22.3625C11.8381 17.5954 17.2998 13.8568 24.7395 11.1467C28.4593 9.79159 32.2913 9.36288 36.2355 9.86053C40.1798 10.3582 43.8435 11.3952 47.2268 12.9717C50.8632 14.5885 54.1127 16.598 56.9753 19.0002C59.9845 21.2959 62.4673 23.6376 64.4237 26.0254C67.5509 30.0272 70.3315 34.1684 72.7654 38.4492C75.346 42.6236 77.6735 46.7576 79.7478 50.8514C82.0753 54.9855 84.2963 58.9729 86.4109 62.8135C88.6722 66.5477 91.1737 69.9956 93.9154 73.1573C96.8701 76.6124 99.9196 78.655 103.064 79.285C106.209 79.915 109.188 79.5452 112.001 78.1758C115.068 76.8466 117.676 74.7306 119.825 71.8278C121.974 68.925 123.53 65.6683 124.494 62.0578C124.868 61.3386 124.822 60.8121 124.356 60.4784C124.143 60.1849 123.943 60.218 123.756 60.5776C123.569 60.9372 123.382 61.2969 123.195 61.6565C119.044 67.3557 115.161 70.9562 111.548 72.458C108.081 73.8533 104.551 72.3833 100.958 68.0478C96.8325 62.9788 92.6753 56.4771 88.4864 48.5426C84.5507 40.6485 79.2959 32.4796 72.722 24.0359C70.7398 20.9951 67.9247 17.8866 64.2768 14.7106C60.7755 11.4281 56.7406 8.64475 52.1721 6.36055C47.8567 4.11663 43.1472 2.71852 38.0436 2.16623C33.0867 1.50749 28.288 2.30158 23.6476 4.5485C15.0198 9.01645 9.10355 13.9806 5.89876 19.441C2.84069 24.795 1.82809 30.3445 2.86098 36.0897C3.20622 37.1829 3.43207 37.8029 3.53852 37.9496L3.7586 37.7899C3.7586 37.7899 3.81901 37.4102 3.93983 36.6507ZM13.6234 29.6252C15.8788 26.8691 19.0405 24.1273 23.1084 21.4C24.5353 20.5887 26.4154 19.7845 28.7485 18.9876C31.0817 18.1907 32.2152 17.5923 32.149 17.1924C32.1634 16.2861 31.191 15.8719 29.2318 15.9496C27.2726 16.0273 24.9999 16.4445 22.4136 17.2011C19.9337 18.1045 17.4869 19.2078 15.0732 20.5111C12.766 21.9611 11.0916 23.5118 10.0502 25.1631C8.1141 28.3594 7.03817 31.0436 6.82243 33.2156C6.56642 35.6409 6.67003 38.2531 7.13325 41.0523L7.33177 42.252C7.46412 43.0517 7.65688 43.4718 7.91005 43.512C8.16321 43.5523 8.3833 43.3926 8.57029 43.033C8.61056 42.7799 8.57747 42.5799 8.47103 42.4332C9.06075 39.5419 9.62315 37.2303 10.1582 35.4984C10.9465 33.8068 12.1015 31.849 13.6234 29.6252Z" fill="#00B6B6"></path>
</g>
<defs>
<filter id="SvgjsFilter1001" x="3.82366" y="5.77643" width="131.687" height="102.587" filterUnits="userSpaceOnUse" color-interpolation-filters="sRGB">
<feFlood flood-opacity="0" result="BackgroundImageFix"></feFlood>
<feColorMatrix in="SourceAlpha" type="matrix" values="0 0 0 0 0 0 0 0 0 0 0 0 0 0 0 0 0 0 127 0" result="hardAlpha"></feColorMatrix>
<feOffset dy="4"></feOffset>
<feGaussianBlur stdDeviation="2"></feGaussianBlur>
<feComposite in2="hardAlpha" operator="out"></feComposite>
<feColorMatrix type="matrix" values="0 0 0 0 0 0 0 0 0 0 0 0 0 0 0 0 0 0 0.25 0"></feColorMatrix>
<feBlend mode="normal" in2="BackgroundImageFix" result="effect1_dropShadow_1_19"></feBlend>
<feBlend mode="normal" in="SourceGraphic" in2="effect1_dropShadow_1_19" result="shape"></feBlend>
</filter>
<clipPath id="SvgjsClipPath1000">
<rect width="133" height="102" fill="white"></rect>
</clipPath>
</defs>
</svg><style>@media (prefers-color-scheme: light) { :root { filter: none; } }
</style></svg>