<svg xmlns="http://www.w3.org/2000/svg" version="1.1" xmlns:xlink="http://www.w3.org/1999/xlink" xmlns:svgjs="http://svgjs.com/svgjs" width="133" height="102"><svg width="133" height="102" viewBox="0 0 133 102" fill="none" xmlns="http://www.w3.org/2000/svg">
<g clip-path="url(#clip0_1_19)">
<path d="M131.329 53.3464C131.381 66.6178 129.097 77.7438 124.479 86.7244C119.687 95.5333 112.81 99.9552 103.848 99.9901C98.8492 100.01 94.7932 98.5604 91.6794 95.6425C88.5649 92.5522 86.9982 88.594 86.9794 83.7681C86.9673 80.6657 87.8194 78.1632 89.5355 76.2606C91.0787 74.1863 92.1949 73.1478 92.8844 73.1451C93.4014 73.1431 94.612 74.1725 96.5159 76.2334C98.2469 78.1225 101.094 79.0594 105.059 79.044C109.885 79.0252 113.926 76.7688 117.183 72.2748C120.268 67.6091 121.792 60.6226 121.755 51.3155C121.724 43.2148 119.976 36.9305 116.511 32.4627C112.874 27.8233 107.866 25.5159 101.489 25.5408C96.3184 25.561 92.361 27.3 89.6167 30.7578C86.6994 34.044 84.3894 38.3619 82.6867 43.7116C80.9833 48.889 79.2816 54.4973 77.5816 60.5364C75.8809 66.4032 73.7482 72.0132 71.1837 77.3662C68.6192 82.7193 65.1031 87.1281 60.6353 90.5927C55.9945 93.8856 49.8822 95.5468 42.2986 95.5764C34.5426 95.6066 28.1564 93.3047 23.14 88.6706C18.1236 84.0365 14.3947 78.1046 11.9536 70.8751C9.34002 63.6463 8.0188 56.3262 7.98992 48.915C7.96506 42.5378 8.8895 36.5017 10.7632 30.8066C12.4646 25.1122 15.118 20.4482 18.7233 16.8146C22.328 13.0087 26.888 11.095 32.4034 11.0735C36.7123 11.0567 40.5956 12.4204 44.0535 15.1647C47.5114 17.9089 49.2497 21.694 49.2685 26.5199C49.2806 29.6223 48.5151 32.2107 46.9719 34.285C45.2558 36.1876 44.053 37.1403 43.3636 37.143C43.0188 37.1443 42.4133 36.5434 41.5468 35.3403C40.5073 33.9655 39.2096 32.6778 37.6537 31.4774C35.9254 30.2776 33.7686 29.6828 31.1833 29.6929C26.1863 30.0571 22.4901 32.4845 20.0946 36.9751C17.6991 41.4657 16.5121 46.4687 16.5336 51.9841C16.5571 58.0165 18.044 63.6124 20.9941 68.7716C23.9443 73.9308 28.1771 76.4997 33.6925 76.4782C38.6908 76.4587 42.5647 75.4095 45.3144 73.3305C48.0633 71.0791 50.4628 67.6226 52.513 62.961C54.3901 58.1276 56.5203 51.9144 58.9037 44.3214C61.2871 36.7284 63.7604 30.083 66.3236 24.3852C68.8861 18.515 72.3157 14.0204 76.6125 10.9012C80.7363 7.6103 86.4176 5.95076 93.6565 5.92254C100.895 5.89433 107.367 7.9374 113.071 12.0517C118.774 16.1661 123.278 21.8364 126.581 29.0625C129.711 36.117 131.294 44.2116 131.329 53.3464Z" fill="white"></path>
<path d="M85.4273 83.6826C86.532 84.8966 88.0899 86.1178 90.1009 87.3462C92.2183 88.7214 94.4493 89.7901 96.794 90.5525C99.3919 91.3551 102.05 91.7779 104.769 91.8211C107.594 92.0109 110.267 91.5275 112.787 90.371C118.12 87.845 121.796 84.7307 123.812 81.0281C125.829 77.3255 126.952 73.935 127.182 70.8568C127.131 69.5506 126.978 68.8775 126.725 68.8372C126.219 68.7566 125.758 69.2026 125.344 70.175C124.89 71.4005 123.795 72.9785 122.06 74.9089C120.472 76.7329 118.398 78.3498 115.838 79.7595C113.53 81.2095 110.85 82.1459 107.798 82.5689C104.892 82.8854 101.821 82.2022 98.5847 80.5192C95.6014 78.8766 92.9316 76.8944 90.5754 74.5728C88.2192 72.2512 86.1161 69.9698 84.2662 67.7287C82.6695 65.5279 81.3591 63.5673 80.3349 61.847C79.3107 60.1266 78.5857 58.973 78.1599 58.3861C77.2824 56.5593 76.0122 54.3455 74.3493 51.7448C72.9396 49.1844 71.3299 46.657 69.5203 44.1628C67.7107 41.6685 65.8278 39.2275 63.8714 36.8397C62.0216 34.5986 60.2379 32.7574 58.5203 31.3161C58.0543 30.9824 57.3019 30.4085 56.2634 29.5944C55.3715 28.6738 54.7789 28.3199 54.4854 28.5328C53.7518 29.065 53.7576 29.8447 54.5027 30.8717C55.2479 31.8988 55.7801 32.6324 56.0994 33.0725C58.4672 36.9534 60.6148 40.994 62.5424 45.1943C64.5765 49.5412 66.6637 53.9616 68.8042 58.4553C71.0914 62.8425 73.5253 67.1233 76.1059 71.2976C78.793 75.6187 81.9001 79.747 85.4273 83.6826ZM46.1096 45.6951C48.3852 48.523 51.0723 52.8441 54.1708 58.6583C57.5225 64.5127 61.8264 70.908 67.0826 77.8442C69.8905 81.4057 72.9717 84.881 76.3263 88.2699C79.7872 91.8056 84.0019 94.6824 88.9704 96.9004C94.2984 99.3055 99.415 100.184 104.32 99.5369C109.478 98.9298 113.325 97.5949 115.859 95.5321C116.299 95.2128 116.74 94.8934 117.18 94.5741C117.62 94.2547 117.787 94.0217 117.68 93.875C117.467 93.5815 117.288 93.488 117.141 93.5945C117.101 93.8477 116.534 94.1469 115.441 94.4921C112.267 95.6746 109.015 96.1306 105.684 95.8602C102.459 95.7365 99.3142 95.1065 96.2503 93.9702C93.1864 92.8339 90.3627 91.4113 87.7792 89.7025C85.1957 87.9936 83.1387 86.2387 81.6082 84.4378C74.8733 77.0069 69.8372 69.9111 66.4999 63.1504C63.7207 57.7764 60.6351 52.2887 57.2432 46.6874C53.9577 41.2329 50.2781 36.6241 46.2043 32.8612C42.3838 29.1386 38.2352 26.6616 33.7588 25.4304C29.5354 24.2394 24.9698 25.2003 20.0619 28.3132C19.6217 28.6325 19.0348 29.0583 18.3012 29.5906C17.8208 30.1631 17.687 30.5961 17.8999 30.8895C18.1128 31.1829 19.1456 31.2174 20.9983 30.993C26.0904 29.986 30.4475 30.744 34.0696 33.267C37.6916 35.79 41.705 39.9327 46.1096 45.6951ZM3.93983 36.6507C3.65207 31.9326 5.12354 27.1698 8.35423 22.3625C11.8381 17.5954 17.2998 13.8568 24.7395 11.1467C28.4593 9.79159 32.2913 9.36288 36.2355 9.86053C40.1798 10.3582 43.8435 11.3952 47.2268 12.9717C50.8632 14.5885 54.1127 16.598 56.9753 19.0002C59.9845 21.2959 62.4673 23.6376 64.4237 26.0254C67.5509 30.0272 70.3315 34.1684 72.7654 38.4492C75.346 42.6236 77.6735 46.7576 79.7478 50.8514C82.0753 54.9855 84.2963 58.9729 86.4109 62.8135C88.6722 66.5477 91.1737 69.9956 93.9154 73.1573C96.8701 76.6124 99.9196 78.655 103.064 79.285C106.209 79.915 109.188 79.5452 112.001 78.1758C115.068 76.8466 117.676 74.7306 119.825 71.8278C121.974 68.925 123.53 65.6683 124.494 62.0578C124.868 61.3386 124.822 60.8121 124.356 60.4784C124.143 60.1849 123.943 60.218 123.756 60.5776C123.569 60.9372 123.382 61.2969 123.195 61.6565C119.044 67.3557 115.161 70.9562 111.548 72.458C108.081 73.8533 104.551 72.3833 100.958 68.0478C96.8325 62.9788 92.6753 56.4771 88.4864 48.5426C84.5507 40.6485 79.2959 32.4796 72.722 24.0359C70.7398 20.9951 67.9247 17.8866 64.2768 14.7106C60.7755 11.4281 56.7406 8.64475 52.1721 6.36055C47.8567 4.11663 43.1472 2.71852 38.0436 2.16623C33.0867 1.50749 28.288 2.30158 23.6476 4.5485C15.0198 9.01645 9.10355 13.9806 5.89876 19.441C2.84069 24.795 1.82809 30.3445 2.86098 36.0897C3.20622 37.1829 3.43207 37.8029 3.53852 37.9496L3.7586 37.7899C3.7586 37.7899 3.81901 37.4102 3.93983 36.6507ZM13.6234 29.6252C15.8788 26.8691 19.0405 24.1273 23.1084 21.4C24.5353 20.5887 26.4154 19.7845 28.7485 18.9876C31.0817 18.1907 32.2152 17.5923 32.149 17.1924C32.1634 16.2861 31.191 15.8719 29.2318 15.9496C27.2726 16.0273 24.9999 16.4445 22.4136 17.2011C19.9337 18.1045 17.4869 19.2078 15.0732 20.5111C12.766 21.9611 11.0916 23.5118 10.0502 25.1631C8.1141 28.3594 7.03817 31.0436 6.82243 33.2156C6.56642 35.6409 6.67003 38.2531 7.13325 41.0523L7.33177 42.252C7.46412 43.0517 7.65688 43.4718 7.91005 43.512C8.16321 43.5523 8.3833 43.3926 8.57029 43.033C8.61056 42.7799 8.57747 42.5799 8.47103 42.4332C9.06075 39.5419 9.62315 37.2303 10.1582 35.4984C10.9465 33.8068 12.1015 31.849 13.6234 29.6252Z" fill="#00B6B6"></path>
</g>
<defs>
<clipPath id="SvgjsClipPath1000">
<rect width="133" height="102" fill="white"></rect>
</clipPath>
</defs>
</svg><style>@media (prefers-color-scheme: light) { :root { filter: none; } }
</style></svg>